<?xml version="1.0" standalone="no"?>
<!DOCTYPE svg PUBLIC "-//W3C//DTD SVG 20010904//EN"
 "http://www.w3.org/TR/2001/REC-SVG-20010904/DTD/svg10.dtd">
<svg version="1.0" xmlns="http://www.w3.org/2000/svg"
 width="128.000000pt" height="128.000000pt" viewBox="0 0 128.000000 128.000000"
 preserveAspectRatio="xMidYMid meet">
<metadata>
Created by potrace 1.14, written by Peter Selinger 2001-2017
</metadata>
<g transform="translate(0.000000,128.000000) scale(0.100000,-0.100000)"
fill="#000000" stroke="none">
<path d="M284 1251 c-19 -12 -37 -34 -44 -55 -10 -31 -9 -42 7 -72 15 -31 45
-52 183 -131 91 -52 190 -109 220 -125 30 -17 60 -35 67 -42 9 -8 -46 -44
-222 -145 -193 -110 -237 -140 -249 -166 -24 -51 -6 -110 41 -133 51 -23 68
-18 208 62 22 13 100 57 173 99 74 43 138 77 143 77 5 0 9 5 9 10 0 6 4 10 9
10 4 0 8 -123 7 -274 -1 -301 1 -312 57 -338 42 -19 95 -8 124 27 21 24 23 36
24 168 4 549 3 631 -9 635 -7 2 -10 7 -7 12 8 13 -23 34 -210 140 -99 57 -193
110 -210 120 -173 99 -244 136 -265 138 -14 1 -39 -6 -56 -17z"/>
</g>
</svg>
